<svg version="1" xmlns="http://www.w3.org/2000/svg" width="800" height="800" viewBox="0 0 600.000000 600.000000"><path d="M291.3 55.7c-1.6 2.7-3.2 5.5-3.6 6.3-.4.8-1.5 2.8-2.5 4.5-1 1.6-3.6 6.1-5.7 10-2.1 3.8-4.8 8.6-6 10.5-1.2 1.9-3.4 5.7-5 8.5-1.5 2.7-4.9 8.8-7.5 13.5-2.6 4.7-7.9 14.1-11.9 20.9-3.9 6.8-7.1 12.5-7.1 12.7 0 .2-1.8 3.3-4 6.9-2.2 3.6-4 6.7-4 7 0 .2-2 3.7-4.3 7.7-2.4 4-6.1 10.4-8.3 14.3-2.1 3.8-4.4 7.9-5.1 9-.7 1.1-1.5 2.6-1.9 3.3-.4.7-3.7 6.6-7.3 13-3.7 6.4-7 12.4-7.4 13.2-.4.8-1.5 2.8-2.6 4.5-1 1.6-6 10.4-11.1 19.5s-10.4 18.2-11.6 20.2c-1.3 2.1-2.4 4-2.4 4.2 0 .3-2 3.9-4.5 7.9-2.5 4.1-4.5 7.7-4.5 8 0 .4-2.4 4.6-5.3 9.4-15.1 24.9-23.4 48.5-26.6 75.9-3.4 28.2 2.4 60.1 16.1 88.4 17.4 36.1 47.5 64.9 83.8 80.2 13.2 5.6 33.6 11.8 39.1 11.8 1.9.1 6.1.7 9.4 1.5 6.9 1.7 30.5 2 37.5.4 2.5-.5 7.2-1.3 10.5-1.8 15.5-2.2 33-8.1 50-16.8 31.5-16.1 59.9-45.1 73.4-74.8 1-2.2 2.7-6 3.8-8.5 2.3-5.1 6.4-17.6 8.7-26.5 9-35.6 4.4-76.4-12.3-110.5-3.5-7.3-55.5-93.7-65.3-108.8-1-1.5-2.1-3.4-2.5-4.2-.3-.8-2.1-3.8-3.8-6.5-5.5-8.6-13-20.9-13.8-22.5-.4-.8-1.7-3.1-3-5-1.2-2-3.8-6.2-5.7-9.4-1.9-3.2-4.2-6.8-5-8.1-.8-1.2-3.3-5.3-5.4-9.1-2.2-3.8-4.9-8.3-6-9.9-2.8-4-4.4-6.6-5.6-9-.6-1.1-1.8-3.2-2.8-4.7-1.5-2.3-25.9-42.2-28.7-46.9-.5-.9-2.7-4.7-4.8-8.3-2.1-3.6-4-6.6-4.2-6.6-.2 0-1.6 2.1-3.2 4.7zm35 150.2c11.3 3 21 8.4 29.8 16.8 16.8 16 20.9 35.3 12.8 59.8-6 18.1-15.4 29.5-44.9 54.5-23.6 20-33.8 30.7-38.4 40.3-6.8 14-7 27.7-.6 36.6 6.6 9.1 16.4 9.6 24.4 1.2 3.4-3.6 4.6-3.8 7.5-1.4l2.1 1.8-2.5 6c-3.2 8-11.4 15.8-18.7 18-6.4 1.9-8.2 1.9-14.6 0-10.2-3.1-16.4-11.6-18.4-25.4-1-6.6-.9-9.2.6-16.6 3.9-20.1 11.1-31.1 40.6-62 24.1-25.3 31.4-35.6 34.5-48.7 1.7-7.5 1.9-21.6.4-29-3.7-17.8-18.1-33.1-35.7-37.9-7.9-2.3-22.4-2.5-29.7-.5-21.2 5.6-33.4 22.4-29.6 40.9C248.3 271.5 256 278 267 278c9.3 0 16.5-4.8 20.8-13.7 1.1-2.3 2.3-3.3 3.9-3.3 2.2 0 2.3.4 2.3 6.4 0 9.1-2.5 15.9-8.2 22.1-6.7 7.4-12.9 10-23.8 10-7.3 0-9.3-.4-14.2-2.8-9.8-4.8-16.1-14.1-18.1-26.7-1.3-8.7 1-21.5 5.5-30.8 8-16.2 28-30.6 47.3-34.1 3.3-.6 7.1-1.3 8.5-1.5 6.1-1.1 27.8.3 35.3 2.3zm-26.9 267c9.2 11.6 10.4 13.7 9.3 15-14.7 17.5-19.1 22.7-19.8 22.9-.9.4-20.9-24.4-20.9-25.8 0-1.3 19.3-26 20.2-25.7.3.1 5.4 6.2 11.2 13.6z"/></svg>